HIERARCHY
ROOT joint_Root
{
	OFFSET 0.0 0.0 0.0
	CHANNELS 6 Xposition Yposition Zposition Zrotation Xrotation Yrotation 
	JOINT Hips
	{
		OFFSET -0.726466 93.3139 -2.00062
		CHANNELS 6 Xposition Yposition Zposition Zrotation Xrotation Yrotation 
		JOINT Spine
		{
			OFFSET 15.7357 0.0 0.0
			CHANNELS 6 Xposition Yposition Zposition Zrotation Xrotation Yrotation 
			JOINT Chest
			{
				OFFSET 8.98455 -0.406207 0.0
				CHANNELS 6 Xposition Yposition Zposition Zrotation Xrotation Yrotation 
				JOINT Neck
				{
					OFFSET 16.3773 0.0 0.0
					CHANNELS 6 Xposition Yposition Zposition Zrotation Xrotation Yrotation 
					JOINT Head
					{
						OFFSET 6.45672 0.0 0.0
						CHANNELS 6 Xposition Yposition Zposition Zrotation Xrotation Yrotation 
						End Site
						{
							OFFSET 0.0 0.0 0.0
						}
					}
				}
				JOINT Shoulder_L
				{
					OFFSET 12.9942 -0.242716 4.98039
					CHANNELS 6 Xposition Yposition Zposition Zrotation Xrotation Yrotation 
					JOINT UpperArm_L
					{
						OFFSET 5.34809 0.0 0.0
						CHANNELS 6 Xposition Yposition Zposition Zrotation Xrotation Yrotation 
						JOINT LowerArm_L
						{
							OFFSET 24.3286 1.87007e-05 0.0
							CHANNELS 6 Xposition Yposition Zposition Zrotation Xrotation Yrotation 
							JOINT Hand_L
							{
								OFFSET 22.2916 0.0 0.0
								CHANNELS 6 Xposition Yposition Zposition Zrotation Xrotation Yrotation 
								End Site
								{
									OFFSET 0.0 0.0 0.0
								}
							}
						}
					}
				}
				JOINT Shoulder_R
				{
					OFFSET 12.9945 -0.242716 -4.98039
					CHANNELS 6 Xposition Yposition Zposition Zrotation Xrotation Yrotation 
					JOINT UpperArm_R
					{
						OFFSET -5.34813 0.0 0.0
						CHANNELS 6 Xposition Yposition Zposition Zrotation Xrotation Yrotation 
						JOINT LowerArm_R
						{
							OFFSET -24.3289 0.000322201 0.0
							CHANNELS 6 Xposition Yposition Zposition Zrotation Xrotation Yrotation 
							JOINT Hand_R
							{
								OFFSET -22.2915 -0.000108084 0.0
								CHANNELS 6 Xposition Yposition Zposition Zrotation Xrotation Yrotation 
								End Site
								{
									OFFSET 0.0 0.0 0.0
								}
							}
						}
					}
				}
			}
		}
		JOINT UpperLeg_L
		{
			OFFSET -2.19248 -6.46944 0.0
			CHANNELS 6 Xposition Yposition Zposition Zrotation Xrotation Yrotation 
			JOINT LowerLeg_L
			{
				OFFSET 39.0811 0.0 -1.23785e-05
				CHANNELS 6 Xposition Yposition Zposition Zrotation Xrotation Yrotation 
				JOINT Foot_L
				{
					OFFSET 40.9854 0.0 -1.26872e-05
					CHANNELS 6 Xposition Yposition Zposition Zrotation Xrotation Yrotation 
					JOINT Toes_L
					{
						OFFSET 11.7543 0.0 0.0
						CHANNELS 6 Xposition Yposition Zposition Zrotation Xrotation Yrotation 
						End Site
						{
							OFFSET 0.0 0.0 0.0
						}
					}
				}
			}
		}
		JOINT UpperLeg_R
		{
			OFFSET -2.19251 6.46944 0.0
			CHANNELS 6 Xposition Yposition Zposition Zrotation Xrotation Yrotation 
			JOINT LowerLeg_R
			{
				OFFSET -39.0811 -0.00228153 -0.0401928
				CHANNELS 6 Xposition Yposition Zposition Zrotation Xrotation Yrotation 
				JOINT Foot_R
				{
					OFFSET -40.9854 0.0 0.0
					CHANNELS 6 Xposition Yposition Zposition Zrotation Xrotation Yrotation 
					JOINT Toes_R
					{
						OFFSET -11.7543 0.0 0.0
						CHANNELS 6 Xposition Yposition Zposition Zrotation Xrotation Yrotation 
						End Site
						{
							OFFSET 0.0 0.0 0.0
						}
					}
				}
			}
		}
	}
}
MOTION
Frames:	4
Frame Time:	0.0333333
0.000000 0.000000 0.000000 0.000000 0.000000 -0.000000 149.319000 92.172500 93.380800 90.088600 -9.362480 4.961500 15.735700 0.000005 -0.000001 66.942600 82.267300 -66.148800 8.984550 -0.406207 -0.000000 6.534320 -6.047220 1.932470 16.377300 -0.000001 -0.000001 2.864860 -18.119700 1.923180 6.456720 -0.000001 -0.000000 4.349040 -24.526000 5.343380 12.994200 -0.242716 4.980390 -89.530700 -1.716390 -74.704600 5.348090 -0.000007 -0.000001 -55.176700 23.582900 -37.096200 24.328600 0.000019 0.000005 -0.068623 -0.119383 -29.706900 22.291600 -0.000001 0.000005 10.021500 5.491080 -6.171240 12.994500 -0.242716 -4.980390 88.415800 4.252490 -69.545700 -5.348130 -0.000001 -0.000004 -72.522400 26.375400 -2.123680 -24.328900 0.000322 -0.000009 2.216800 11.354100 -11.128800 -22.291500 -0.000108 -0.000004 8.247040 5.363810 -1.795970 -2.192480 -6.469440 -0.000000 -177.481000 -12.667200 1.743680 39.081100 -0.000007 -0.000012 -0.088025 0.238837 20.231600 40.985400 -0.000006 -0.000013 0.806746 4.589540 -67.108300 11.754300 -0.000000 0.000003 -0.000089 -0.000928 -16.613300 -2.192510 6.469440 -0.000001 -176.298000 12.852300 158.981000 -39.081100 -0.002282 -0.040193 -0.001615 0.006238 38.142600 -40.985400 0.000008 0.000006 6.946030 -3.060620 -52.671200 -11.754300 -0.000006 -0.000006 -0.026856 -0.202673 -24.869000
0.000000 0.000000 0.000000 0.000000 0.000000 -0.000000 148.601000 91.792600 96.045900 90.807900 -9.869660 4.141730 15.735700 0.000005 -0.000001 64.477900 82.481200 -63.827100 8.984550 -0.406207 -0.000000 5.870570 -6.473290 1.633590 16.377300 -0.000001 -0.000001 2.663400 -18.576500 2.338470 6.456720 -0.000001 -0.000000 4.005880 -25.032800 5.806120 12.994200 -0.242716 4.980390 -89.462000 -1.988270 -74.854500 5.348090 -0.000007 -0.000001 -53.749100 21.985600 -38.689100 24.328600 0.000019 0.000005 -0.675250 -1.012970 -33.672200 22.291600 -0.000001 0.000005 11.130400 5.514290 -7.117010 12.994500 -0.242716 -4.980390 88.401600 4.197340 -69.130800 -5.348130 -0.000001 -0.000004 -72.252900 25.785600 -0.347979 -24.328900 0.000322 -0.000009 2.296840 11.930400 -10.985700 -22.291500 -0.000108 -0.000004 9.178370 5.367480 -1.909900 -2.192480 -6.469440 -0.000000 -177.743000 -13.480800 3.157600 39.081100 -0.000007 -0.000012 -0.071408 0.198939 19.745300 40.985400 -0.000006 -0.000013 1.065800 4.757880 -68.909900 11.754300 -0.000000 0.000003 -0.391976 -0.496939 -16.282200 -2.192510 6.469440 -0.000001 -174.322000 15.365300 159.002000 -39.081100 -0.002282 -0.040193 -0.007318 0.023053 24.755400 -40.985400 0.000008 0.000006 6.789410 -0.618944 -52.445300 -11.754300 -0.000006 -0.000006 -0.026979 -0.203270 -24.893700
0.000000 0.000000 0.000000 0.000000 0.000000 -0.000000 147.774000 91.104600 98.885200 91.899900 -10.705000 3.588280 15.735700 0.000005 -0.000001 62.043600 82.676400 -61.681700 8.984550 -0.406207 -0.000000 5.223340 -6.859940 1.036910 16.377300 -0.000001 -0.000001 2.366910 -18.875400 2.619040 6.456720 -0.000001 -0.000000 3.831380 -25.345600 6.175500 12.994200 -0.242716 4.980390 -89.409700 -2.194480 -74.939300 5.348090 -0.000007 -0.000001 -52.656900 20.552400 -39.224400 24.328600 0.000019 0.000005 -1.509700 -1.954590 -37.676600 22.291600 -0.000001 0.000005 12.395200 5.534260 -7.978430 12.994500 -0.242716 -4.980390 88.443100 4.042740 -68.917800 -5.348130 -0.000001 -0.000004 -72.242800 24.272700 0.397249 -24.328900 0.000322 -0.000009 2.099760 12.722700 -9.457060 -22.291500 -0.000108 -0.000004 9.651810 5.352850 -1.465160 -2.192480 -6.469440 -0.000000 -178.523000 -14.050200 4.159330 39.081100 -0.000007 -0.000012 -0.000054 0.000143 20.756100 40.985400 -0.000006 -0.000013 2.562280 4.117110 -71.603500 11.754300 -0.000000 0.000003 -0.849419 -1.063070 -16.061600 -2.192510 6.469440 -0.000001 -171.477000 19.532900 159.461000 -39.081100 -0.002282 -0.040193 -0.005240 0.042736 11.347900 -40.985400 0.000008 0.000006 5.934530 -0.279871 -52.638100 -11.754300 -0.000006 -0.000006 -0.026809 -0.202450 -24.859800
0.000000 0.000000 0.000000 0.000000 0.000000 -0.000000 146.750000 90.319000 102.031000 92.768500 -11.473200 3.247270 15.735700 0.000005 -0.000001 59.710200 82.851800 -59.549800 8.984550 -0.406207 -0.000000 4.618290 -7.202280 0.611502 16.377300 -0.000001 -0.000001 2.090920 -19.111600 2.756330 6.456720 -0.000001 -0.000000 3.733940 -25.530300 6.348550 12.994200 -0.242716 4.980390 -89.459500 -2.029600 -75.083000 5.348090 -0.000007 -0.000001 -51.859600 19.508800 -39.003700 24.328600 0.000019 0.000005 -2.724890 -3.149040 -40.896700 22.291600 -0.000001 0.000005 13.253300 5.558200 -9.092900 12.994500 -0.242716 -4.980390 88.358500 4.211420 -68.682900 -5.348130 -0.000001 -0.000004 -71.990100 22.180400 0.365156 -24.328900 0.000322 -0.000009 1.628680 13.519900 -6.940300 -22.291500 -0.000108 -0.000004 10.561200 5.334180 -0.911632 -2.192480 -6.469440 -0.000000 -178.956000 -13.096000 4.632340 39.081100 -0.000007 -0.000012 -0.003072 0.007157 23.230000 40.985400 -0.000006 -0.000013 1.397660 2.932280 -72.901500 11.754300 -0.000000 0.000003 -1.398510 -1.758270 -17.638100 -2.192510 6.469440 -0.000001 -167.456000 24.396500 158.087000 -39.081100 -0.002282 -0.040193 0.001685 0.025470 3.737790 -40.985400 0.000008 0.000006 5.425770 -3.116240 -54.071700 -11.754300 -0.000006 -0.000006 -0.026474 -0.200823 -24.792400
